<?xml version="1.0" ?>
<svg width="32px" height="32px" viewBox="0 0 32 32"
    xmlns="http://www.w3.org/2000/svg">
    <defs>
        <style>.cls-1{fill:#8c9eff;}.cls-2{fill:#5f7cf9;}</style>
    </defs>
    <title/>
    <g data-name="Arrow" id="Arrow-2">
        <path class="cls-1" d="M27.71,4.29a1,1,0,0,0-1.14-.19l-23,11A1,1,0,0,0,4,17H15V28a1,1,0,0,0,.78,1L16,29a1,1,0,0,0,.9-.57l11-23A1,1,0,0,0,27.71,4.29Z"/>
        <path class="cls-2" d="M15,28a1,1,0,0,0,.78,1L16,29a1,1,0,0,0,.9-.57l11-23a1,1,0,0,0-.19-1.14L15,17Z"/>
    </g>
</svg>