<svg width="24px" height="24px" viewBox="0 0 24 24" fill="none" xmlns="http://www.w3.org/2000/svg">
<path d="M10.72 20.92C8.79164 20.92 6.90658 20.3482 5.3032 19.2768C3.69982 18.2055 2.45013 16.6827 1.71218 14.9012C0.974226 13.1196 0.781143 11.1592 1.15735 9.26786C1.53356 7.37654 2.46215 5.63926 3.82571 4.2757C5.18928 2.91213 6.92656 1.98354 8.81787 1.60733C10.7092 1.23112 12.6696 1.42421 14.4512 2.16216C16.2327 2.90012 17.7555 4.1498 18.8268 5.75318C19.8982 7.35656 20.47 9.24162 20.47 11.17C20.4647 13.7542 19.4358 16.2311 17.6085 18.0584C15.7811 19.8858 13.3042 20.9147 10.72 20.92ZM10.72 2.91999C9.0896 2.92592 7.49751 3.4148 6.14475 4.32492C4.792 5.23504 3.73925 6.52558 3.11942 8.03358C2.4996 9.54158 2.34049 11.1994 2.6622 12.7978C2.98391 14.3962 3.772 15.8634 4.92697 17.0141C6.08194 18.1649 7.55199 18.9477 9.15151 19.2636C10.751 19.5795 12.4083 19.4144 13.914 18.7891C15.4198 18.1638 16.7065 17.1064 17.6117 15.7503C18.5169 14.3943 19 12.8004 19 11.17C18.9987 10.0844 18.7834 9.00977 18.3665 8.00747C17.9495 7.00517 17.3391 6.09488 16.5701 5.32867C15.8011 4.56246 14.8886 3.95534 13.8848 3.54204C12.881 3.12874 11.8056 2.91736 10.72 2.91999Z" fill="black"/>
<path d="M13.28 22.58C10.8174 22.5888 8.44229 21.6673 6.63 20C6.49195 19.8581 6.4147 19.6679 6.4147 19.47C6.4147 19.272 6.49195 19.0819 6.63 18.94C6.69629 18.867 6.77631 18.8079 6.86547 18.7659C6.95463 18.7239 7.0512 18.6999 7.14964 18.6953C7.24808 18.6906 7.34648 18.7054 7.4392 18.7389C7.53191 18.7723 7.61714 18.8236 7.69 18.89C8.57167 19.7063 9.62101 20.3202 10.7647 20.6888C11.9083 21.0573 13.1187 21.1716 14.3111 21.0237C15.5035 20.8757 16.6492 20.469 17.6681 19.8321C18.687 19.1952 19.5545 18.3434 20.2099 17.3364C20.8652 16.3293 21.2927 15.1912 21.4624 14.0016C21.6321 12.8121 21.54 11.5999 21.1923 10.4497C20.8447 9.29949 20.25 8.23912 19.4499 7.34271C18.6498 6.4463 17.6635 5.73549 16.56 5.25997C16.467 5.22202 16.3828 5.16555 16.3123 5.09399C16.2419 5.02243 16.1867 4.93728 16.1502 4.84373C16.1138 4.75018 16.0967 4.65018 16.1001 4.54982C16.1035 4.44946 16.1273 4.35084 16.17 4.25997C16.2091 4.16791 16.2662 4.0846 16.3379 4.01494C16.4097 3.94528 16.4947 3.89067 16.5879 3.85433C16.681 3.81799 16.7805 3.80065 16.8805 3.80334C16.9805 3.80603 17.0789 3.82868 17.17 3.86997C19.2238 4.76383 20.9072 6.33758 21.9372 8.32662C22.9672 10.3157 23.2809 12.5987 22.8256 14.7918C22.3703 16.9849 21.1738 18.9544 19.4372 20.3691C17.7006 21.7838 15.5299 22.5575 13.29 22.56L13.28 22.58Z" fill="black"/>
<path d="M7.72001 16.54C7.61209 16.5373 7.50603 16.5114 7.40906 16.4639C7.31209 16.4165 7.2265 16.3487 7.15814 16.2651C7.08979 16.1816 7.04027 16.0843 7.01298 15.9798C6.98569 15.8754 6.98126 15.7663 7.00001 15.66L7.51001 12.71L5.36001 10.61C5.25853 10.5129 5.18679 10.3889 5.15314 10.2526C5.1195 10.1162 5.12535 9.97313 5.17001 9.83999C5.2129 9.70771 5.29173 9.58997 5.39769 9.49991C5.50364 9.40985 5.63255 9.35102 5.77001 9.32999L8.77001 8.89999L10.1 6.20999C10.1705 6.0941 10.2696 5.99831 10.3878 5.93184C10.506 5.86536 10.6394 5.83044 10.775 5.83044C10.9106 5.83044 11.044 5.86536 11.1622 5.93184C11.2804 5.99831 11.3795 6.0941 11.45 6.20999L12.73 8.89999L15.73 9.32999C15.8675 9.35102 15.9964 9.40985 16.1023 9.49991C16.2083 9.58997 16.2871 9.70771 16.33 9.83999C16.3747 9.97313 16.3805 10.1162 16.3469 10.2526C16.3132 10.3889 16.2415 10.5129 16.14 10.61L14 12.71L14.51 15.66C14.5336 15.799 14.518 15.9419 14.465 16.0726C14.412 16.2032 14.3237 16.3166 14.21 16.4C14.0961 16.4812 13.9617 16.5289 13.8221 16.5377C13.6825 16.5465 13.5432 16.5162 13.42 16.45L10.76 15.06L8.07001 16.45C7.96273 16.5088 7.84237 16.5398 7.72001 16.54ZM10.72 13.46C10.8424 13.4602 10.9627 13.4911 11.07 13.55L12.73 14.42L12.42 12.57C12.4002 12.4512 12.4089 12.3294 12.4455 12.2147C12.482 12.0999 12.5452 11.9955 12.63 11.91L14 10.6L12.14 10.33C12.0196 10.311 11.9053 10.264 11.8063 10.1928C11.7073 10.1215 11.6264 10.0281 11.57 9.91999L10.74 8.22999L9.90001 9.91999C9.84497 10.0291 9.76442 10.1234 9.66519 10.1948C9.56596 10.2661 9.45098 10.3125 9.33001 10.33L7.47001 10.6L8.82001 11.91C8.90619 11.9945 8.97038 12.0989 9.00699 12.2139C9.04359 12.3289 9.05149 12.4512 9.03001 12.57L8.72001 14.42L10.38 13.55C10.4833 13.4902 10.6007 13.4592 10.72 13.46Z" fill="black"/>
</svg>
