<?xml version="1.0" encoding="utf-8"?><!-- Uploaded to: SVG Repo, www.svgrepo.com, Generator: SVG Repo Mixer Tools -->
<svg width="800px" height="800px" viewBox="0 0 24 24" xmlns="http://www.w3.org/2000/svg"><path d="M7 15.5c0 .049.006.096.007.145a7.3 7.3 0 1 1 8.638-8.638c-.049 0-.096-.007-.145-.007a8.557 8.557 0 0 0-.877.045 6.296 6.296 0 1 0-7.578 7.578A8.557 8.557 0 0 0 7 15.5zm.983-11.27l-.119-.992A5.3 5.3 0 0 0 3.2 8.558c.002.153.01.303.024.45l.995-.093a4.508 4.508 0 0 1-.019-.367A4.3 4.3 0 0 1 7.983 4.23zM22.8 15.5a7.3 7.3 0 1 1-7.3-7.3 7.308 7.308 0 0 1 7.3 7.3zm-1 0a6.3 6.3 0 1 0-6.3 6.3 6.307 6.307 0 0 0 6.3-6.3zm-10.58.415a4.508 4.508 0 0 1-.02-.367 4.3 4.3 0 0 1 3.783-4.318l-.119-.992a5.3 5.3 0 0 0-4.664 5.32c.002.153.01.303.024.45zm8.028-4.163l-.707.707a4.3 4.3 0 1 1-6.082 6.082l-.707.707a5.3 5.3 0 0 0 7.496-7.496z"/><path fill="none" d="M0 0h24v24H0z"/></svg>