<?xml version="1.0" encoding="iso-8859-1"?>
<!-- Generator: Adobe Illustrator 19.0.0, SVG Export Plug-In . SVG Version: 6.00 Build 0)  -->
<svg version="1.1" id="Capa_1" xmlns="http://www.w3.org/2000/svg" xmlns:xlink="http://www.w3.org/1999/xlink" x="0px" y="0px"
	 viewBox="0 0 360 360" style="enable-background:new 0 0 360 360;" xml:space="preserve">
<g id="XMLID_501_">
	<path id="XMLID_502_" d="M345,127.272h-50V77.834L211.977,0H15v360h280v-50h50V127.272z M315,280H105V157.273h210V280z"/>
	<polygon id="XMLID_505_" points="176.442,236.684 143.072,236.684 143.072,219.294 171.179,219.294 171.179,208.766 
		143.072,208.766 143.072,192.691 175.597,192.691 175.597,181.317 130.101,181.317 130.101,248.058 176.442,248.058 	"/>
	<polygon id="XMLID_506_" points="180.108,248.058 194.208,248.058 210.094,224.182 225.886,248.058 239.892,248.058 
		216.862,215.158 240.644,181.317 226.638,181.317 210.094,206.134 193.456,181.317 179.355,181.317 203.138,215.158 	"/>
	<polygon id="XMLID_507_" points="293.659,236.684 260.29,236.684 260.29,219.294 288.395,219.294 288.395,208.766 260.29,208.766 
		260.29,192.691 292.813,192.691 292.813,181.317 247.317,181.317 247.317,248.058 293.659,248.058 	"/>
</g>
<g>
</g>
<g>
</g>
<g>
</g>
<g>
</g>
<g>
</g>
<g>
</g>
<g>
</g>
<g>
</g>
<g>
</g>
<g>
</g>
<g>
</g>
<g>
</g>
<g>
</g>
<g>
</g>
<g>
</g>
</svg>
