<?xml version="1.0" encoding="iso-8859-1"?>
<!-- Generator: Adobe Illustrator 18.1.1, SVG Export Plug-In . SVG Version: 6.00 Build 0)  -->
<svg version="1.1" id="Capa_1" xmlns="http://www.w3.org/2000/svg" xmlns:xlink="http://www.w3.org/1999/xlink" x="0px" y="0px"
	 viewBox="0 0 26 26" style="enable-background:new 0 0 26 26;" xml:space="preserve">
<g>
	<g>
		<path style="fill:#030104;" d="M12.811,8.52l1.061-3.658c-0.933-0.631-1.967-1.136-4.119-0.244L8.691,8.291
			c0.855-0.354,1.53-0.515,2.096-0.51C11.646,7.787,12.25,8.142,12.811,8.52z"/>
		<path style="fill:#030104;" d="M8.518,8.965L8.505,8.971l-1.05,3.652c2.155-0.892,3.17-0.374,4.104,0.254l1.074-3.692
			C11.702,8.554,10.664,8.082,8.518,8.965z"/>
		<path style="fill:#030104;" d="M14.432,5.246l-1.061,3.679c0.93,0.631,2.053,1.147,4.115,0.226l1.059-3.665
			C16.395,6.373,15.361,5.875,14.432,5.246z"/>
		<path style="fill:#030104;" d="M13.195,9.541l-1.063,3.652c0.934,0.633,1.968,1.137,4.117,0.246l1.024-3.56
			C15.082,10.63,14.127,10.169,13.195,9.541z"/>
		<path style="fill:#030104;" d="M23,0H3C1.344,0,0,1.344,0,3v14c0,1.656,1.344,3,3,3h7v1c0,0.551,0.449,1,1,1h4
			c0.551,0,1-0.516,1-1c0-0.209,0-0.611,0-1h7c1.656,0,3-1.344,3-3V3C26,1.344,24.656,0,23,0z M23.275,18.725
			c-0.399,0-0.725-0.324-0.725-0.725s0.324-0.725,0.725-0.725S24,17.6,24,18S23.676,18.725,23.275,18.725z M24,15
			c0,0.551-0.449,1-1,1H3c-0.551,0-1-0.449-1-1V3c0-0.551,0.449-1,1-1h20c0.551,0,1,0.449,1,1V15z"/>
		<path style="fill:#030104;" d="M17.877,23H8.124c-1.154,0-2.09,0.936-2.09,2.09V26h13.934v-0.91
			C19.967,23.936,19.031,23,17.877,23z"/>
	</g>
</g>
<g>
</g>
<g>
</g>
<g>
</g>
<g>
</g>
<g>
</g>
<g>
</g>
<g>
</g>
<g>
</g>
<g>
</g>
<g>
</g>
<g>
</g>
<g>
</g>
<g>
</g>
<g>
</g>
<g>
</g>
</svg>
