<?xml version="1.0" encoding="utf-8"?><!-- Uploaded to: SVG Repo, www.svgrepo.com, Generator: SVG Repo Mixer Tools -->
<svg fill="#000000" width="800px" height="800px" viewBox="0 0 24 24" id="edit-user-left-8" data-name="Flat Color" xmlns="http://www.w3.org/2000/svg" class="icon flat-color"><path id="primary" d="M7.52,13.35H11a2.31,2.31,0,0,0,1.78-1,2.78,2.78,0,0,0,.57-1.75V9.37a2.74,2.74,0,0,0-.8-1.93l-3.9-3.9a6.88,6.88,0,0,1,3.51-1.49A7,7,0,0,1,20,9a7.23,7.23,0,0,1-1.5,4.39A8,8,0,0,1,22,20a2,2,0,0,1-2,2H6a2,2,0,0,1-2-2A8.1,8.1,0,0,1,7.52,13.35Z" style="fill: rgb(0, 0, 0);"></path><path id="secondary" d="M5.09,2.29,11.71,8.9a1.05,1.05,0,0,1,.29.71V11a1,1,0,0,1-1,1H9.61a1,1,0,0,1-.71-.29L2.29,5.09a1,1,0,0,1,0-1.4l1.4-1.4A1,1,0,0,1,5.09,2.29Z" style="fill: rgb(44, 169, 188);"></path></svg>