<?xml version="1.0" encoding="utf-8"?>

<svg version="1.1" id="Icons" xmlns="http://www.w3.org/2000/svg" xmlns:xlink="http://www.w3.org/1999/xlink" x="0px" y="0px"
	 viewBox="0 0 32 32" style="enable-background:new 0 0 32 32;" xml:space="preserve">
<path d="M16.5,0.1c-0.3-0.2-0.7-0.2-0.9,0C11.6,2.2,9,8.8,9,16.5c0,3.1,0.5,6.2,1.3,8.9c0.1,0.4,0.5,0.7,1,0.7h9.5
	c0.4,0,0.8-0.3,1-0.7c0.9-2.7,1.3-5.7,1.3-8.9C23,8.8,20.4,2.2,16.5,0.1z M19,16c0,1.7-1.3,3-3,3s-3-1.3-3-3v-4c0-1.7,1.3-3,3-3
	s3,1.3,3,3V16z"/>
<path d="M20.3,28h-8.6L11,30.8c-0.1,0.3,0,0.6,0.2,0.9S11.7,32,12,32h8c0.3,0,0.6-0.1,0.8-0.4s0.3-0.6,0.2-0.9L20.3,28z"/>
<path d="M8.4,25.9C7.5,23.1,7,19.8,7,16.5c0,0,0,0,0,0C5,20,4,24.1,4,28.2V29c0,0.4,0.2,0.7,0.6,0.9C4.7,30,4.9,30,5,30
	c0.2,0,0.4-0.1,0.6-0.2L9.1,27C8.8,26.7,8.5,26.3,8.4,25.9z"/>
<path d="M25,16.4C25,16.4,25,16.4,25,16.4c0,3.4-0.5,6.7-1.4,9.5c-0.1,0.4-0.4,0.8-0.7,1.1l3.4,2.7c0.2,0.1,0.4,0.2,0.6,0.2
	c0.1,0,0.3,0,0.4-0.1c0.3-0.2,0.6-0.5,0.6-0.9v-0.8C28,24.1,27,20,25,16.4z"/>
</svg>
