<?xml version="1.0" ?>
<svg data-name="Layer 1" id="Layer_1" viewBox="0 0 64 64"
    xmlns="http://www.w3.org/2000/svg">
    <path d="M38,49a1,1,0,0,1-.759-.35L33,43.7V59.549l19-7.238V43.737l-13.644,5.2A1,1,0,0,1,38,49Z"/>
    <path d="M32,28.04l-17.834,5.1L32,39.93l17.834-6.794ZM25,35H23V33h2Zm4,0H27V33h2Zm4,0H31V33h2Zm4,0H35V33h2Zm2,0V33h2v2Z"/>
    <polygon points="33.685 41.429 38.301 46.815 57.315 39.571 52.699 34.185 33.685 41.429"/>
    <polygon points="30.301 41.423 11.301 34.185 6.629 39.637 24.735 47.784 30.301 41.423"/>
    <path d="M24.59,49.912,12,44.246v8.065l19,7.238V43.661l-5.248,6A1,1,0,0,1,24.59,49.912Z"/>
    <path d="M16,22l-2.4-1.8-1.2,1.6,4,3a1,1,0,0,0,1.2,0l4-3-1.2-1.6L18,22V12a1,1,0,0,0-1-1H2v2H16Z"/>
    <path d="M26,19a1,1,0,0,0,.6-.2l4-3-1.2-1.6L27,16V2H25V16l-2.4-1.8-1.2,1.6,4,3A1,1,0,0,0,26,19Z"/>
    <path d="M47,11a1,1,0,0,0-1,1V22l-2.4-1.8-1.2,1.6,4,3a1,1,0,0,0,1.2,0l4-3-1.2-1.6L48,22V13H62V11Z"/>
    <path d="M38,19a1,1,0,0,0,.6-.2l4-3-1.2-1.6L39,16V2H37V16l-2.4-1.8-1.2,1.6,4,3A1,1,0,0,0,38,19Z"/>
</svg>