<?xml version="1.0" encoding="utf-8"?><!-- Uploaded to: SVG Repo, www.svgrepo.com, Generator: SVG Repo Mixer Tools -->
<svg width="800px" height="800px" viewBox="0 0 24 24" fill="none" xmlns="http://www.w3.org/2000/svg">
<path opacity="0.5" d="M3.17157 18.8284C4.34315 20 6.22876 20 10 20L15.75 19.9944C18.3859 19.9668 19.8541 19.8028 20.8284 18.8285C22 17.6569 22 15.7713 22 12C22 8.22879 22 6.34317 20.8284 5.1716C19.8541 4.19727 18.3738 4.02762 15.7379 4H10C6.22876 4 4.34315 4 3.17157 5.17157C2 6.34315 2 8.22876 2 12C2 15.7712 2 17.6569 3.17157 18.8284Z" fill="#1C274C"/>
<path fill-rule="evenodd" clip-rule="evenodd" d="M15 1.25C15.4142 1.25 15.75 1.58579 15.75 2V4.00559V19.9944V22C15.75 22.4142 15.4142 22.75 15 22.75C14.5858 22.75 14.25 22.4142 14.25 22V2C14.25 1.58579 14.5858 1.25 15 1.25Z" fill="#1C274C"/>
<path d="M6.81782 7.78733C7.11779 7.74992 7.48429 7.74996 7.88383 7.75H10.1162C10.5157 7.74996 10.8822 7.74992 11.1822 7.78733C11.5109 7.82833 11.8612 7.9242 12.1624 8.19187C12.2138 8.23753 12.2625 8.28618 12.3081 8.33756C12.5758 8.63878 12.6717 8.98915 12.7127 9.31782C12.7501 9.61779 12.7501 9.98428 12.75 10.3838L12.75 10.425C12.75 10.8392 12.4142 11.175 12 11.175C11.5858 11.175 11.25 10.8392 11.25 10.425C11.25 9.97047 11.2486 9.69931 11.2242 9.50348C11.1998 9.30765 10.9965 9.2758 10.9965 9.2758C10.8007 9.25137 10.5295 9.25001 10.075 9.25001H9.75001V14.75H11C11.4142 14.75 11.75 15.0858 11.75 15.5C11.75 15.9142 11.4142 16.25 11 16.25H7.00001C6.58579 16.25 6.25001 15.9142 6.25001 15.5C6.25001 15.0858 6.58579 14.75 7.00001 14.75H8.25001V9.25001H7.925C7.47047 9.25001 7.19931 9.25137 7.00348 9.2758C7.00348 9.2758 6.80023 9.30765 6.7758 9.50348C6.75137 9.69931 6.75001 9.97047 6.75001 10.425C6.75001 10.8392 6.41422 11.175 6.00001 11.175C5.58579 11.175 5.25001 10.8392 5.25001 10.425L5.25 10.3838C5.24996 9.98428 5.24992 9.61779 5.28733 9.31782C5.32833 8.98915 5.4242 8.63878 5.69187 8.33756C5.73753 8.28618 5.78618 8.23753 5.83756 8.19187C6.13878 7.9242 6.48915 7.82833 6.81782 7.78733Z" fill="#1C274C"/>
</svg>